<svg width="213" height="43" viewBox="0 0 213 43" fill="none" xmlns="http://www.w3.org/2000/svg">
<path d="M23.4631 6.89319C27.1078 3.24853 33.017 3.24853 36.6616 6.89319C40.3063 10.5378 40.3063 16.447 36.6616 20.0917L28.6483 28.105L15.4498 14.9066L23.4631 6.89319Z" fill="#FDCB58"/>
<path d="M20.6349 36.1184C16.9902 39.7631 11.0811 39.7631 7.4364 36.1184C3.79174 32.4737 3.79174 26.5646 7.4364 22.9199L15.4498 14.9066L28.6483 28.105L20.6349 36.1184Z" fill="#BB1A34"/>
<path d="M50.7495 9.05174V9.01774H62.3095C61.3915 9.52774 60.8475 10.4797 60.8475 11.4997V31.5597C60.8475 34.7217 58.2975 37.3057 55.1355 37.3057H48.7435C50.8175 36.8297 52.2455 34.9937 52.2455 32.8857V12.6557C52.2455 11.4657 51.5995 9.86774 50.7495 9.05174ZM74.7652 9.01774H83.8432C83.0952 9.52774 82.6532 10.3777 82.6532 11.2617V31.7977C82.6532 34.8237 80.2052 37.3057 77.1452 37.3057H69.3592C66.3672 37.3057 63.9192 34.8577 63.9192 31.8317V11.5337C63.9192 10.3777 63.2732 9.49374 62.4232 9.05174V9.01774H73.9832C73.0652 9.52774 72.5212 10.4797 72.5212 11.4997V31.7977C72.5212 34.3817 74.5952 36.4897 77.1792 36.4897C79.7632 36.4897 81.8712 34.3817 81.8712 31.7977V23.7397C81.8712 15.2057 75.4792 9.52774 74.7652 9.01774ZM109.983 21.0877C109.099 21.5977 108.521 22.5497 108.521 23.5697V34.8237C108.521 35.8437 109.099 36.7957 109.983 37.3057H96.7568C89.6848 37.3057 83.9388 30.9817 83.9388 23.1617C83.9388 19.2517 85.3328 15.7497 87.6448 13.1997C89.9568 10.6497 93.1528 9.05174 96.6888 9.01774H108.521V17.3817C107.671 14.9677 105.189 9.83374 100.667 9.83374H99.4428C96.0088 9.83374 92.5068 15.7837 92.5068 23.1617C92.5068 30.5057 94.9888 36.4897 99.0008 36.4897H99.9528V23.6037C99.9528 22.5497 99.3748 21.5977 98.4568 21.1217V21.0877H109.983ZM125.71 9.01774H137.236C136.352 9.52774 135.774 10.4797 135.774 11.4997V34.8237C135.774 35.8437 136.352 36.7957 137.236 37.3057H125.71V37.2717C126.628 36.7957 127.206 35.8437 127.206 34.7897V21.9037H120.168V34.8237C120.168 35.8437 120.712 36.7957 121.596 37.3057H110.07V37.2717C110.988 36.7957 111.566 35.8437 111.566 34.7897V11.4997C111.566 10.4797 110.988 9.52774 110.104 9.01774H110.07H121.63C120.712 9.52774 120.168 10.4797 120.168 11.4997V21.0877H127.206V11.4997C127.206 10.4797 126.628 9.52774 125.71 9.01774ZM137.329 9.01774H159.157V17.3817C158.273 14.9677 155.791 9.83374 151.303 9.83374H147.393V21.0877H149.331C152.731 21.0877 154.805 17.7217 155.281 16.2257V26.7657C154.805 25.3037 152.663 21.9037 149.399 21.9037H147.393V36.4897H151.303C155.791 36.4897 158.273 31.3557 159.157 28.9417V37.3057H137.329C138.247 36.7957 138.825 35.8437 138.825 34.7897V11.5337C138.825 10.4797 138.247 9.52774 137.329 9.05174V9.01774ZM174.944 37.3057C175.692 36.8297 176.032 35.9117 175.794 35.0277L174.298 29.5877H165.152C165.322 32.3417 166.104 35.6057 168.45 37.3057H159.542C160.698 36.7957 161.582 35.7757 161.888 34.5517L168.416 11.3977C168.654 10.4797 168.28 9.49374 167.464 9.01774H179.126C178.446 9.39174 178.038 10.1057 178.038 10.8537C178.038 11.0577 178.072 11.2277 178.14 11.4317L184.668 34.8577C184.974 35.9117 185.654 36.7617 186.606 37.3057H174.944ZM165.118 28.8057H174.06L169.232 11.4657L166.002 22.9577C165.9 23.3657 165.084 27.0377 165.118 28.8057ZM199.656 9.01774C206.694 9.08574 212.406 15.3757 212.406 23.1617C212.406 30.9817 206.66 37.3057 199.554 37.3057H186.702C187.62 36.7957 188.198 35.8437 188.198 34.7897V11.5337C188.198 10.4797 187.62 9.52774 186.702 9.05174V9.01774H199.656ZM198.908 36.4897C201.254 36.4897 203.838 30.5057 203.838 23.1617C203.838 15.7837 201.05 9.83374 198.67 9.83374H196.766V36.4897H198.908Z" fill="#E9F0FA"/>
</svg>
